# xmcd
#
# Track frame offsets:
#	150
#	15113
#	32331
#	51690
#	67318
#	84063
#	96135
#	114510
#	128915
#	144901
#	161137
#	175624
#	192837
#	211329
#	229128
#	244965
#	262031
#	275817
#	288935
#	304839
#	322470
#	342879
#
# Disc length: 4797 seconds
#
# Revision: 0
# Processed by: cddbd v1.5.2PL0 Copyright (c) Steve Scherf et al.
# Submitted via: audiograbber 1.83.01
#
DISCID=4612bb16
DTITLE=Various Artist - Latest and Greatest R&B Summer [CD 2 of 3)
DYEAR=2015
DGENRE=R&B
TTITLE0=Timbaland - The Way I Are
TTITLE1=Nelly - Hot In Herre
TTITLE2=Ja Rule feat Case - Livin' It Up
TTITLE3=Sisqo - Thong Song
TTITLE4=Eve - Who's That Girl
TTITLE5=Fatman Scoop feat Crooklyn Clan - Be Faithful
TTITLE6=Terror Squad - Lean Back
TTITLE7=Swizz Beatz - Money In The Bank
TTITLE8=Ludacris feat Nate Dogg - Area Codes
TTITLE9=Chingy - Right Thurr
TTITLE10=Soulja Boy feat Sammie - Kiss Me Thru The Phone
TTITLE11=Cam'ron feat Juelz Santana, Freekey Zeekey and Toya - Hey Ma
TTITLE12=Angie Martinez feat Lil' Mo and Sacario - If I Could Go!
TTITLE13=Foxy Brown - Oh Yeah
TTITLE14=Damian Marley - Welcome To Jamrock
TTITLE15=Nina Sky - Move Ya Body
TTITLE16=Lumidee - Never Leave You - Uh Ooh
TTITLE17=City High - What Would You Do
TTITLE18=Ray J - What I Need
TTITLE19=Young Gunz feat Rell - No Better Love
TTITLE20=The-Dream - Falsetto
TTITLE21=Will.I.Am feat John Legend - Swing By My Way
EXTD=
EXTT0=
EXTT1=
EXTT2=
EXTT3=
EXTT4=
EXTT5=
EXTT6=
EXTT7=
EXTT8=
EXTT9=
EXTT10=
EXTT11=
EXTT12=
EXTT13=
EXTT14=
EXTT15=
EXTT16=
EXTT17=
EXTT18=
EXTT19=
EXTT20=
EXTT21=
PLAYORDER=
